# xmcd CD database file
#
# Track frame offsets:
#	150
#	10225
#	23169
#	37846
#	50129
#	61910
#	71474
#	83749
#	98729
#	111261
#	123708
#	137971
#	147449
#	157536
#	168087
#	182823
#	194134
#	206293
#	216209
#	226747
#
# Disc length: 3239 seconds
#
# Revision: 0
# Processed by: cddbd v1.5.1PL0 Copyright (c) Steve Scherf et al.
# Submitted via: CDex 1.51
#
DISCID=130ca514
DTITLE=Various Artist - Country Love - Sentimental Country
DYEAR=2001
DGENRE=Country
TTITLE0=Kitty Wells - I Can't Stop Loving You
TTITLE1=Charlie Rich - The Most Beautiful Girl
TTITLE2=Johnny Paycheck - A Good Year For The Roses
TTITLE3=Moe Bandy - Streets Of Laredo
TTITLE4=Wilma Burgess - Misty Blue
TTITLE5=Bill Phillips - The Company You Keep
TTITLE6=Sammi Smith - Send Me The Pillow You Dream On
TTITLE7=Ray Price - The Old Rugged Cros
TTITLE8=Wanda Jackson - Crazy
TTITLE9=Charlie Rich - Behind Closed Doors
TTITLE10=Margo Smith - It Only Hurts For A Little While
TTITLE11=Roy Drusky - Second Hand Roses
TTITLE12=Susan Raye - Pitty Pitty Patter
TTITLE13=Hank Locklin - Let Me Be The One
TTITLE14=Marion Worth - Shake Me I Rattle
TTITLE15=Don Gibson - Just One Time
TTITLE16=Lynn Anderson - How Can I Unlove You?
TTITLE17=Ray Price - Make The World Go Away
TTITLE18=Barbara Fairchild - Kid Stuff
TTITLE19=The Country Dance Kings - He Thinks He'll Keep Her
EXTD=YEAR: 2001
EXTT0=
EXTT1=
EXTT2=
EXTT3=
EXTT4=
EXTT5=
EXTT6=
EXTT7=
EXTT8=
EXTT9=
EXTT10=
EXTT11=
EXTT12=
EXTT13=
EXTT14=
EXTT15=
EXTT16=
EXTT17=
EXTT18=
EXTT19=
PLAYORDER=
